# xmcd
#
# Track frame offsets: 
#        182
#        12312
#        27660
#        42430
#        59557
#        73925
#        91912
#        109902
#        127215
#        142037
#        164100
#        174937
#        187185
#        201220
#        216680
#        225945
#        239720
#        253995
#        269677
#
# Disc length: 3781 seconds
#
# Revision: 1
# Processed by: cddbd v1.5.2PL0 Copyright (c) Steve Scherf et al.
# Submitted via: ExactAudioCopy v0.95b3
#
DISCID=3f0ec313
DTITLE=Dolly Parton - The Collection
DYEAR=1992
DGENRE=Country
TTITLE0=Jolene
TTITLE1=Think About Love
TTITLE2=Downtown
TTITLE3=Save The Last Dance For Me
TTITLE4=Heartbreak Express
TTITLE5=The House Of The Rising Sun
TTITLE6=Starting Over Again
TTITLE7=Great Balls Of Fire
TTITLE8=It's All Wrong, But It's All Right
TTITLE9=Light Of A Clear Blue Morning
TTITLE10=All I Can Do
TTITLE11=The Bargain Store
TTITLE12=I Will Always Love You
TTITLE13=Tie Our Love (In A Double Knot)
TTITLE14=Washday Blues
TTITLE15=Coat Of Many Colours
TTITLE16=Mule Skinner Blues
TTITLE17=My Blue Ridge Mountain Blues
TTITLE18=Just Because I'm A Woman
EXTD=
EXTT0=
EXTT1=
EXTT2=
EXTT3=
EXTT4=
EXTT5=
EXTT6=
EXTT7=
EXTT8=
EXTT9=
EXTT10=
EXTT11=
EXTT12=
EXTT13=
EXTT14=
EXTT15=
EXTT16=
EXTT17=
EXTT18=
PLAYORDER=
